<svg t="1651850374818" class="icon" viewBox="0 0 1024 1024" version="1.1" xmlns="http://www.w3.org/2000/svg" p-id="2549" width="200" height="200"><path d="M960.128 514.666667 537.664 95.146667c-5.994667-5.952-14.421333-7.573333-22.08-5.568-7.658667-2.005333-16.085333-0.405333-22.08 5.568L71.04 514.666667c-8.981333 8.917333-8.981333 23.36 0 32.277333l10.837333 10.773333c8.981333 8.917333 23.530667 8.917333 32.490667 0l83.754667-83.178667 0 392.32c0 33.152 27.072 60.053333 60.458667 60.053333l514.005333 0c33.386667 0 60.458667-26.901333 60.458667-60.053333l0-392.32 83.754667 83.178667c8.981333 8.917333 23.530667 8.917333 32.490667 0l10.837333-10.773333C969.109333 538.026667 969.109333 523.584 960.128 514.666667zM515.584 581.610667c-50.090667 0-90.709333-40.341333-90.709333-90.069333 0-49.728 40.618667-90.069333 90.709333-90.069333s90.709333 40.341333 90.709333 90.069333C606.293333 541.290667 565.674667 581.610667 515.584 581.610667z" p-id="2550" fill="#2c2c2c"></path></svg>