<svg t="1651850654605" class="icon" viewBox="0 0 1024 1024" version="1.1" xmlns="http://www.w3.org/2000/svg" p-id="6138" width="200" height="200"><path d="M948.907 147.911h-873.813c-43.691 0-72.818 29.127-72.818 72.818v582.542c0 43.691 29.127 72.818 72.818 72.818h873.813c43.691 0 72.818-29.127 72.818-72.818v-582.542c0-43.691-29.127-72.818-72.818-72.818zM876.089 220.729c7.282 0 14.563 0 21.845 7.282-7.282 7.282-14.563 14.563-14.563 21.845-247.581 320.398-495.161 320.398-742.741 0-7.282-7.282-7.282-14.563-14.563-21.845 7.282-7.282 14.563-7.282 21.845-7.282h728.178zM948.907 730.453c0 43.691-29.127 72.818-72.818 72.818h-728.178c-43.691 0-72.818-29.127-72.818-72.818v-436.907c0-7.282 0-7.282 0-14.563 291.271 378.653 582.542 378.653 873.813 0 0 7.282 0 7.282 0 14.563v436.907z" p-id="6139"></path></svg>